<mxfile host="app.diagrams.net" modified="2023-09-03T00:27:56.712Z" agent="Mozilla/5.0 (X11; Linux x86_64; rv:107.0) Gecko/20100101 Firefox/107.0" etag="HpPMFTySMkWETULzuDie" version="21.7.2" type="device">
  <diagram id="zB4sr5O8rqRqC5Dg_wLf" name="Page-1">
    <mxGraphModel dx="954" dy="589" grid="1" gridSize="10" guides="1" tooltips="1" connect="1" arrows="1" fold="1" page="1" pageScale="1" pageWidth="827" pageHeight="1169" math="0" shadow="0">
      <root>
        <mxCell id="0" />
        <mxCell id="1" parent="0" />
        <mxCell id="D7wprRCxp99t7g1xdDNY-1" value="" style="rounded=0;whiteSpace=wrap;html=1;" parent="1" vertex="1">
          <mxGeometry x="845" y="347" width="230" height="160" as="geometry" />
        </mxCell>
        <mxCell id="D7wprRCxp99t7g1xdDNY-2" value="&lt;div&gt;TABS&lt;/div&gt;" style="text;html=1;strokeColor=none;fillColor=none;align=center;verticalAlign=middle;whiteSpace=wrap;rounded=0;" parent="1" vertex="1">
          <mxGeometry x="1010" y="351" width="60" height="30" as="geometry" />
        </mxCell>
        <mxCell id="D7wprRCxp99t7g1xdDNY-3" value="&lt;div&gt;BUFFER&lt;/div&gt;&lt;div&gt;(FILE)&lt;br&gt;&lt;/div&gt;" style="text;html=1;strokeColor=none;fillColor=none;align=center;verticalAlign=middle;whiteSpace=wrap;rounded=0;" parent="1" vertex="1">
          <mxGeometry x="846" y="351" width="60" height="30" as="geometry" />
        </mxCell>
        <mxCell id="D7wprRCxp99t7g1xdDNY-39" style="edgeStyle=none;rounded=0;orthogonalLoop=1;jettySize=auto;html=1;exitX=0.5;exitY=0.933;exitDx=0;exitDy=0;endArrow=classic;endFill=1;exitPerimeter=0;" parent="1" source="D7wprRCxp99t7g1xdDNY-4" edge="1">
          <mxGeometry relative="1" as="geometry">
            <mxPoint x="230" y="532" as="targetPoint" />
          </mxGeometry>
        </mxCell>
        <mxCell id="D7wprRCxp99t7g1xdDNY-4" value="&lt;div&gt;&lt;b&gt;BUFFER&lt;/b&gt;&lt;/div&gt;&lt;div&gt;(ARCHIVO ABIERTO EN MEMORIA)&lt;br&gt;&lt;/div&gt;" style="text;html=1;strokeColor=none;fillColor=none;align=center;verticalAlign=middle;whiteSpace=wrap;rounded=0;" parent="1" vertex="1">
          <mxGeometry x="160" y="442" width="140" height="48" as="geometry" />
        </mxCell>
        <mxCell id="D7wprRCxp99t7g1xdDNY-15" style="rounded=0;orthogonalLoop=1;jettySize=auto;html=1;exitX=0;exitY=0.5;exitDx=0;exitDy=0;exitPerimeter=0;entryX=0.5;entryY=1;entryDx=0;entryDy=0;" parent="1" source="D7wprRCxp99t7g1xdDNY-9" target="D7wprRCxp99t7g1xdDNY-13" edge="1">
          <mxGeometry relative="1" as="geometry" />
        </mxCell>
        <mxCell id="D7wprRCxp99t7g1xdDNY-16" style="edgeStyle=none;rounded=0;orthogonalLoop=1;jettySize=auto;html=1;exitX=0;exitY=0.5;exitDx=0;exitDy=0;exitPerimeter=0;entryX=0.5;entryY=1;entryDx=0;entryDy=0;" parent="1" source="D7wprRCxp99t7g1xdDNY-9" target="D7wprRCxp99t7g1xdDNY-14" edge="1">
          <mxGeometry relative="1" as="geometry" />
        </mxCell>
        <mxCell id="D7wprRCxp99t7g1xdDNY-50" style="edgeStyle=none;rounded=0;orthogonalLoop=1;jettySize=auto;html=1;exitX=1;exitY=0;exitDx=0;exitDy=0;exitPerimeter=0;entryX=0;entryY=0.5;entryDx=0;entryDy=0;dashed=1;endArrow=classic;endFill=1;" parent="1" source="D7wprRCxp99t7g1xdDNY-9" target="D7wprRCxp99t7g1xdDNY-1" edge="1">
          <mxGeometry relative="1" as="geometry" />
        </mxCell>
        <mxCell id="D7wprRCxp99t7g1xdDNY-9" value="" style="strokeWidth=2;html=1;shape=mxgraph.flowchart.annotation_1;align=left;pointerEvents=1;rotation=90;" parent="1" vertex="1">
          <mxGeometry x="526" y="158" width="50" height="488" as="geometry" />
        </mxCell>
        <mxCell id="D7wprRCxp99t7g1xdDNY-10" value="&lt;div&gt;&lt;b&gt;BUFFER 1&lt;br&gt;&lt;/b&gt;&lt;/div&gt;" style="text;html=1;strokeColor=#82b366;fillColor=#d5e8d4;align=center;verticalAlign=middle;whiteSpace=wrap;rounded=0;" parent="1" vertex="1">
          <mxGeometry x="323" y="402" width="140" height="30" as="geometry" />
        </mxCell>
        <mxCell id="D7wprRCxp99t7g1xdDNY-11" value="&lt;div&gt;&lt;b&gt;BUFFER 2&lt;br&gt;&lt;/b&gt;&lt;/div&gt;" style="text;html=1;strokeColor=#82b366;fillColor=#d5e8d4;align=center;verticalAlign=middle;whiteSpace=wrap;rounded=0;" parent="1" vertex="1">
          <mxGeometry x="480" y="402" width="140" height="30" as="geometry" />
        </mxCell>
        <mxCell id="D7wprRCxp99t7g1xdDNY-12" value="&lt;div&gt;&lt;b&gt;BUFFER 3&lt;br&gt;&lt;/b&gt;&lt;/div&gt;" style="text;html=1;strokeColor=#82b366;fillColor=#d5e8d4;align=center;verticalAlign=middle;whiteSpace=wrap;rounded=0;" parent="1" vertex="1">
          <mxGeometry x="640" y="402" width="140" height="30" as="geometry" />
        </mxCell>
        <mxCell id="D7wprRCxp99t7g1xdDNY-13" value="&lt;b&gt;TAB 1&lt;/b&gt;" style="rounded=1;whiteSpace=wrap;html=1;fillColor=#dae8fc;strokeColor=#6c8ebf;" parent="1" vertex="1">
          <mxGeometry x="420" y="252" width="100" height="40" as="geometry" />
        </mxCell>
        <mxCell id="D7wprRCxp99t7g1xdDNY-14" value="&lt;b&gt;TAB 2&lt;/b&gt;" style="rounded=1;whiteSpace=wrap;html=1;fillColor=#dae8fc;strokeColor=#6c8ebf;" parent="1" vertex="1">
          <mxGeometry x="590" y="252" width="100" height="40" as="geometry" />
        </mxCell>
        <mxCell id="D7wprRCxp99t7g1xdDNY-20" style="edgeStyle=none;rounded=0;orthogonalLoop=1;jettySize=auto;html=1;exitX=1;exitY=0.5;exitDx=0;exitDy=0;endArrow=none;endFill=0;" parent="1" source="D7wprRCxp99t7g1xdDNY-17" edge="1">
          <mxGeometry relative="1" as="geometry">
            <mxPoint x="160" y="130" as="targetPoint" />
          </mxGeometry>
        </mxCell>
        <mxCell id="D7wprRCxp99t7g1xdDNY-17" value="" style="rounded=0;whiteSpace=wrap;html=1;" parent="1" vertex="1">
          <mxGeometry x="43.5" y="50" width="230" height="160" as="geometry" />
        </mxCell>
        <mxCell id="D7wprRCxp99t7g1xdDNY-19" style="edgeStyle=none;rounded=0;orthogonalLoop=1;jettySize=auto;html=1;exitX=0.5;exitY=0;exitDx=0;exitDy=0;entryX=0.5;entryY=1;entryDx=0;entryDy=0;endArrow=none;endFill=0;" parent="1" source="D7wprRCxp99t7g1xdDNY-17" target="D7wprRCxp99t7g1xdDNY-17" edge="1">
          <mxGeometry relative="1" as="geometry" />
        </mxCell>
        <mxCell id="D7wprRCxp99t7g1xdDNY-21" style="edgeStyle=none;rounded=0;orthogonalLoop=1;jettySize=auto;html=1;exitX=1;exitY=0.5;exitDx=0;exitDy=0;endArrow=none;endFill=0;" parent="1" source="D7wprRCxp99t7g1xdDNY-17" edge="1">
          <mxGeometry relative="1" as="geometry">
            <mxPoint x="160" y="130" as="targetPoint" />
          </mxGeometry>
        </mxCell>
        <mxCell id="D7wprRCxp99t7g1xdDNY-22" value="&lt;div&gt;&lt;b&gt;BUFFER 1&lt;br&gt;&lt;/b&gt;&lt;/div&gt;" style="text;html=1;strokeColor=none;fillColor=none;align=center;verticalAlign=middle;whiteSpace=wrap;rounded=0;" parent="1" vertex="1">
          <mxGeometry x="30" y="115" width="140" height="30" as="geometry" />
        </mxCell>
        <mxCell id="D7wprRCxp99t7g1xdDNY-23" value="&lt;div&gt;&lt;b&gt;BUFFER 2&lt;br&gt;&lt;/b&gt;&lt;/div&gt;" style="text;html=1;strokeColor=none;fillColor=none;align=center;verticalAlign=middle;whiteSpace=wrap;rounded=0;" parent="1" vertex="1">
          <mxGeometry x="150" y="75" width="140" height="30" as="geometry" />
        </mxCell>
        <mxCell id="D7wprRCxp99t7g1xdDNY-24" value="&lt;div&gt;&lt;b&gt;BUFFER 3&lt;br&gt;&lt;/b&gt;&lt;/div&gt;" style="text;html=1;strokeColor=none;fillColor=none;align=center;verticalAlign=middle;whiteSpace=wrap;rounded=0;" parent="1" vertex="1">
          <mxGeometry x="147" y="158" width="140" height="30" as="geometry" />
        </mxCell>
        <mxCell id="D7wprRCxp99t7g1xdDNY-25" style="edgeStyle=none;rounded=0;orthogonalLoop=1;jettySize=auto;html=1;exitX=1;exitY=0.5;exitDx=0;exitDy=0;endArrow=none;endFill=0;" parent="1" source="D7wprRCxp99t7g1xdDNY-26" edge="1">
          <mxGeometry relative="1" as="geometry">
            <mxPoint x="956.5" y="130" as="targetPoint" />
          </mxGeometry>
        </mxCell>
        <mxCell id="D7wprRCxp99t7g1xdDNY-26" value="" style="rounded=0;whiteSpace=wrap;html=1;" parent="1" vertex="1">
          <mxGeometry x="840" y="50" width="230" height="160" as="geometry" />
        </mxCell>
        <mxCell id="D7wprRCxp99t7g1xdDNY-27" style="edgeStyle=none;rounded=0;orthogonalLoop=1;jettySize=auto;html=1;exitX=0.5;exitY=0;exitDx=0;exitDy=0;entryX=0.5;entryY=1;entryDx=0;entryDy=0;endArrow=none;endFill=0;" parent="1" source="D7wprRCxp99t7g1xdDNY-26" target="D7wprRCxp99t7g1xdDNY-26" edge="1">
          <mxGeometry relative="1" as="geometry" />
        </mxCell>
        <mxCell id="D7wprRCxp99t7g1xdDNY-29" value="&lt;div&gt;&lt;b&gt;BUFFER 4&lt;br&gt;&lt;/b&gt;&lt;/div&gt;" style="text;html=1;strokeColor=none;fillColor=none;align=center;verticalAlign=middle;whiteSpace=wrap;rounded=0;" parent="1" vertex="1">
          <mxGeometry x="854.5" y="110" width="92" height="30" as="geometry" />
        </mxCell>
        <mxCell id="D7wprRCxp99t7g1xdDNY-30" value="&lt;div&gt;&lt;b&gt;BUFFER 5&lt;/b&gt;&lt;/div&gt;" style="text;html=1;strokeColor=none;fillColor=none;align=center;verticalAlign=middle;whiteSpace=wrap;rounded=0;" parent="1" vertex="1">
          <mxGeometry x="946.5" y="110" width="140" height="30" as="geometry" />
        </mxCell>
        <mxCell id="D7wprRCxp99t7g1xdDNY-32" value="&lt;div&gt;&lt;b&gt;BUFFER 4&lt;br&gt;&lt;/b&gt;&lt;/div&gt;" style="text;html=1;strokeColor=#82b366;fillColor=#d5e8d4;align=center;verticalAlign=middle;whiteSpace=wrap;rounded=0;" parent="1" vertex="1">
          <mxGeometry x="400" y="452" width="140" height="30" as="geometry" />
        </mxCell>
        <mxCell id="D7wprRCxp99t7g1xdDNY-33" value="&lt;div&gt;&lt;b&gt;BUFFER 5&lt;br&gt;&lt;/b&gt;&lt;/div&gt;" style="text;html=1;strokeColor=#82b366;fillColor=#d5e8d4;align=center;verticalAlign=middle;whiteSpace=wrap;rounded=0;" parent="1" vertex="1">
          <mxGeometry x="570" y="452" width="140" height="30" as="geometry" />
        </mxCell>
        <mxCell id="D7wprRCxp99t7g1xdDNY-36" value="" style="shape=curlyBracket;whiteSpace=wrap;html=1;rounded=1;flipH=1;rotation=0;" parent="1" vertex="1">
          <mxGeometry x="1130" y="30" width="20" height="490" as="geometry" />
        </mxCell>
        <mxCell id="D7wprRCxp99t7g1xdDNY-37" value="Session 1" style="text;strokeColor=#d79b00;fillColor=#ffe6cc;html=1;fontSize=24;fontStyle=1;verticalAlign=middle;align=center;" parent="1" vertex="1">
          <mxGeometry x="1170" y="252" width="120" height="45" as="geometry" />
        </mxCell>
        <mxCell id="D7wprRCxp99t7g1xdDNY-38" value="&lt;ul&gt;&lt;li&gt;&lt;b&gt;&amp;nbsp;[TAB]&lt;/b&gt;&amp;nbsp;&amp;nbsp;&amp;nbsp;&amp;nbsp;&amp;nbsp;&amp;nbsp;&amp;nbsp;&amp;nbsp;&amp;nbsp;&amp;nbsp;&amp;nbsp;&amp;nbsp;&amp;nbsp;&amp;nbsp;&amp;nbsp; --&amp;gt;&amp;nbsp; Buffer Siguiente&lt;br&gt;&lt;/li&gt;&lt;li&gt;&lt;b&gt;&amp;nbsp;[SHIFT][TAB]&lt;/b&gt;&amp;nbsp; --&amp;gt;&amp;nbsp; Buffer Anterior&lt;br&gt;&lt;/li&gt;&lt;li&gt;&lt;b&gt;&amp;nbsp;[SHIFT]T&lt;/b&gt;&amp;nbsp;&amp;nbsp;&amp;nbsp;&amp;nbsp;&amp;nbsp;&amp;nbsp;&amp;nbsp;&amp;nbsp; --&amp;gt;&amp;nbsp; Buffer Nuevo&lt;/li&gt;&lt;/ul&gt;" style="text;strokeColor=none;fillColor=none;html=1;whiteSpace=wrap;verticalAlign=middle;overflow=hidden;" parent="1" vertex="1">
          <mxGeometry x="180" y="520" width="330" height="83" as="geometry" />
        </mxCell>
        <mxCell id="D7wprRCxp99t7g1xdDNY-42" style="edgeStyle=none;rounded=0;orthogonalLoop=1;jettySize=auto;html=1;exitX=0.5;exitY=0;exitDx=0;exitDy=0;endArrow=classic;endFill=1;" parent="1" source="D7wprRCxp99t7g1xdDNY-40" edge="1">
          <mxGeometry relative="1" as="geometry">
            <mxPoint x="560" y="130" as="targetPoint" />
          </mxGeometry>
        </mxCell>
        <mxCell id="D7wprRCxp99t7g1xdDNY-40" value="&lt;div&gt;&lt;b&gt;TABS&lt;/b&gt;&lt;/div&gt;&lt;div&gt;(Conjunto de ventanas&amp;nbsp;&lt;/div&gt;&lt;div&gt;-que tienen abierto buffers-)&lt;br&gt;&lt;/div&gt;" style="text;html=1;strokeColor=none;fillColor=none;align=center;verticalAlign=middle;whiteSpace=wrap;rounded=0;" parent="1" vertex="1">
          <mxGeometry x="480" y="185" width="160" height="55" as="geometry" />
        </mxCell>
        <mxCell id="D7wprRCxp99t7g1xdDNY-41" value="&lt;ul&gt;&lt;li&gt;&lt;b&gt;&amp;nbsp;[CTRL]T [TAB]&lt;/b&gt; &amp;nbsp;&amp;nbsp;&amp;nbsp;&amp;nbsp;&amp;nbsp;&amp;nbsp;&amp;nbsp;&amp;nbsp;&amp;nbsp;&amp;nbsp;&amp;nbsp;&amp;nbsp; &amp;nbsp; --&amp;gt; TAB Siguiente&lt;br&gt;&lt;/li&gt;&lt;li&gt;&amp;nbsp;&lt;b&gt;[CTRL]T [SHIFT] [TAB]&lt;/b&gt;&amp;nbsp; --&amp;gt; TAB Anterior&lt;br&gt;&lt;/li&gt;&lt;li&gt;&lt;b&gt;&amp;nbsp;[CTRL]T T&lt;/b&gt;&amp;nbsp;&amp;nbsp;&amp;nbsp; &amp;nbsp; &amp;nbsp;&amp;nbsp;&amp;nbsp;&amp;nbsp;&amp;nbsp;&amp;nbsp;&amp;nbsp;&amp;nbsp;&amp;nbsp;&amp;nbsp;&amp;nbsp;&amp;nbsp;&amp;nbsp;&amp;nbsp;&amp;nbsp;&amp;nbsp; --&amp;gt; TAB Nueva&lt;br&gt;&lt;/li&gt;&lt;/ul&gt;" style="text;strokeColor=none;fillColor=none;html=1;whiteSpace=wrap;verticalAlign=middle;overflow=hidden;" parent="1" vertex="1">
          <mxGeometry x="440" y="50" width="290" height="80" as="geometry" />
        </mxCell>
        <mxCell id="D7wprRCxp99t7g1xdDNY-46" style="edgeStyle=none;rounded=0;orthogonalLoop=1;jettySize=auto;html=1;exitX=1;exitY=0.5;exitDx=0;exitDy=0;endArrow=classic;endFill=1;" parent="1" source="D7wprRCxp99t7g1xdDNY-43" target="D7wprRCxp99t7g1xdDNY-44" edge="1">
          <mxGeometry relative="1" as="geometry" />
        </mxCell>
        <mxCell id="D7wprRCxp99t7g1xdDNY-43" value="&lt;div&gt;&lt;b&gt;SESSION&lt;/b&gt;&lt;br&gt;&lt;/div&gt;&lt;div&gt;(Conjunto de TABs y Buffers abiertos)&lt;br&gt;&lt;/div&gt;" style="text;html=1;align=center;verticalAlign=middle;whiteSpace=wrap;rounded=0;" parent="1" vertex="1">
          <mxGeometry x="1180" y="110" width="140" height="51" as="geometry" />
        </mxCell>
        <mxCell id="D7wprRCxp99t7g1xdDNY-44" value="&lt;ul style=&quot;font-size: 11px&quot;&gt;&lt;li&gt;&lt;font style=&quot;font-size: 11px&quot;&gt;&lt;b&gt;&amp;nbsp;,ks&amp;nbsp;&lt;/b&gt; --&amp;gt;&amp;nbsp; Guardar Session&lt;br&gt;&lt;/font&gt;&lt;/li&gt;&lt;li&gt;&lt;font style=&quot;font-size: 11px&quot;&gt;&lt;b&gt;&amp;nbsp;,rs&amp;nbsp;&lt;/b&gt; --&amp;gt;&amp;nbsp; Eliminar Session&lt;br&gt;&lt;/font&gt;&lt;/li&gt;&lt;/ul&gt;" style="text;strokeColor=none;fillColor=none;html=1;whiteSpace=wrap;verticalAlign=middle;overflow=hidden;" parent="1" vertex="1">
          <mxGeometry x="1380" y="83.25" width="250" height="104.5" as="geometry" />
        </mxCell>
        <mxCell id="D7wprRCxp99t7g1xdDNY-34" style="edgeStyle=orthogonalEdgeStyle;rounded=0;orthogonalLoop=1;jettySize=auto;html=1;exitX=0;exitY=0.5;exitDx=0;exitDy=0;endArrow=classic;endFill=1;dashed=1;" parent="1" source="D7wprRCxp99t7g1xdDNY-13" edge="1">
          <mxGeometry relative="1" as="geometry">
            <mxPoint x="280" y="130" as="targetPoint" />
            <Array as="points">
              <mxPoint x="360" y="272" />
              <mxPoint x="360" y="130" />
            </Array>
          </mxGeometry>
        </mxCell>
        <mxCell id="D7wprRCxp99t7g1xdDNY-35" style="edgeStyle=orthogonalEdgeStyle;rounded=0;orthogonalLoop=1;jettySize=auto;html=1;exitX=1;exitY=0.5;exitDx=0;exitDy=0;endArrow=classic;endFill=1;dashed=1;" parent="1" source="D7wprRCxp99t7g1xdDNY-14" edge="1">
          <mxGeometry relative="1" as="geometry">
            <mxPoint x="830" y="125" as="targetPoint" />
            <Array as="points">
              <mxPoint x="760" y="272" />
              <mxPoint x="760" y="125" />
            </Array>
          </mxGeometry>
        </mxCell>
        <mxCell id="SMtfuY2G4S4_wUpCnUY2-1" value="" style="endArrow=none;html=1;rounded=0;exitX=0;exitY=0.25;exitDx=0;exitDy=0;entryX=1;entryY=0.25;entryDx=0;entryDy=0;" parent="1" source="D7wprRCxp99t7g1xdDNY-1" target="D7wprRCxp99t7g1xdDNY-1" edge="1">
          <mxGeometry width="50" height="50" relative="1" as="geometry">
            <mxPoint x="810" y="380" as="sourcePoint" />
            <mxPoint x="860" y="330" as="targetPoint" />
          </mxGeometry>
        </mxCell>
      </root>
    </mxGraphModel>
  </diagram>
</mxfile>
